#N canvas 231 295 791 550 10;
#X obj 173 476 outlet;
#X obj 74 19 inlet;
#X obj 239 274 t b f, f 25;
#X obj 239 346 bng 39 250 50 0 empty empty empty 17 7 0 10 #fcfcfc #000000 #000000;
#X obj 74 170 unpack f f f f;
#X obj 239 243 abs;
#N canvas 0 50 450 250 (subpatch) 0;
#X text 0 0 plugdatainfo <?xml version="1.0" encoding="UTF-8"?> <plugdatainfo/>;
#X coords 0 1 100 -1 1 1 1;
#X restore 0 0 graph;
#X obj 239 306 delay 100 1 msec, f 25;
#X msg 74 327 set \$1 \$2 \$3, f 16;
#X msg 173 420 60 0 2, f 10;
#X text 205 176 NOTA \, VEL \, CHANNEL \, DURATION;
#X obj 74 274 pack f 0 f;
#X connect 1 0 4 0;
#X connect 2 0 7 0;
#X connect 2 1 7 1;
#X connect 3 0 9 0;
#X connect 4 0 11 0;
#X connect 4 2 11 2;
#X connect 4 3 5 0;
#X connect 5 0 2 0;
#X connect 7 0 3 0;
#X connect 8 0 9 0;
#X connect 9 0 0 0;
#X connect 11 0 8 0;
