#N canvas 0 50 450 388 12;
#X obj 38 138 unpack f f f f;
#X obj 67 214 pack f f f;
#X obj 67 248 cyclone/prepend note;
#X text 187 55 NOTA \, VEL \, CHANNEL \, DURATION;
#X obj 67 295 outlet;
#X obj 38 54 cyclone/prepend next;
#X obj 38 25 inlet;
#X obj 38 104 clone Children_wait 32;
#X connect 0 1 1 0;
#X connect 0 2 1 1;
#X connect 0 3 1 2;
#X connect 1 0 2 0;
#X connect 2 0 4 0;
#X connect 5 0 7 0;
#X connect 6 0 5 0;
#X connect 7 0 0 0;
