#N canvas 547 63 1207 769 12;
#X obj 21 84 * 0.01;
#X obj 20 214 -;
#X obj 20 239 * 100;
#X obj 72 84 s velocity;
#X obj 175 122 s dur;
#X obj 351 476 r velocity;
#X obj 21 16 inlet;
#X obj 20 717 outlet~;
#X obj 159 717 outlet~;
#X obj 430 476 r channel;
#X obj 175 96 abs;
#X obj 272 536 pack f f f f, f 37;
#X obj 510 476 r dur;
#X msg 272 592 note \$1 \$2 \$3;
#X obj 21 46 unpack f f f f, f 25;
#X obj 21 124 t f f f f;
#X obj 20 270 t f f;
#X msg 272 503 74;
#X obj 406 282 s channel;
#X obj 406 227 bng 20 250 50 0 empty empty empty 17 7 0 10 #fcfcfc #000000 #000000;
#X obj 153 536 r soundfont;
#X obj 20 493 pack f f, f 15;
#X obj 102 428 r channel;
#X obj 379 592 Children_note-off;
#X obj 543 638 r soundfont-loader;
#N canvas 0 50 450 250 (subpatch) 0;
#X text 0 0 plugdatainfo <?xml version="1.0" encoding="UTF-8"?> <plugdatainfo><InfoObj ID="16.j....jA.........A....." Updated="0" Segmented="1" Path="32......D..........9.........fO.........nG...."/><InfoObj ID="16.e....3A.........A....." Updated="0" Segmented="1" Path="32......D..........g....L5+++eH....i9+++GF...."/><InfoObj ID="16.e....z..........A....." Updated="0" Segmented="1" Path="32......D..........e....Tv++++G....E7+++yC...."/><InfoObj ID="16.e....bA.........A....." Updated="0" Segmented="1" Path="32......D..........c....Hm+++eG....x4+++mC...."/><InfoObj ID="16.e....fA..............." Updated="0" Segmented="1" Path="32......D..........H....7j+++OB....O4+++6....."/><InfoObj ID="16.Q....rA.........A....." Updated="0" Segmented="1" Path="32......D..........y....X4++++L....V9+++eH...."/><InfoObj ID="16.R....LA.........B....." Updated="0" Segmented="1" Path="32......D..........R....7N...fD....uC...XC...."/><InfoObj ID="16.U....XA...P..........." Updated="0" Segmented="1" Path="32......D..........W....X9++++E....l++++yB...."/><InfoObj ID="16.W....LA.........A....." Updated="0" Segmented="1" Path="32......D..........W.........vE.........vB...."/><InfoObj ID="16.A....7..........B....." Updated="0" Segmented="1" Path="32......D..........i....D+++++H....w++++WD...."/><InfoObj ID="16.A....jA...P.....B....." Updated="0" Segmented="1" Path="32......D..........M....v9+++eC....r++++iA...."/><InfoObj ID="16.Z....7..........D....." Updated="0" Segmented="1" Path="32......D..........O....bS...vC....2D...XC...."/><InfoObj ID="16.a....nA.........B....." Updated="0" Segmented="1" Path="32......D..........JA........fR.........LI...."/><InfoObj ID="16.S....nA.........B....." Updated="0" Segmented="1" Path="32......D..........N....fA...fC....X....rA...."/><InfoObj ID="16.W....r..........D....." Updated="0" Segmented="1" Path="32......D..........R....rF...fD....qA...LB...."/><InfoObj ID="16.M....r..........D....." Updated="0" Segmented="1" Path="32......D..........R.........fD.........LB...."/><InfoObj ID="16.Q....DB.........B....." Updated="0" Segmented="1" Path="32......D..........R....7N...fD....uC...XC...."/><InfoObj ID="16.Q....DB.........A....." Updated="0" Segmented="1" Path="32......D..........R....vO...fD....7C...XC...."/><InfoObj ID="16.U....DB.........B....." Updated="0" Segmented="1" Path="32......D..........W....P+++++E....z++++yB...."/></plugdatainfo>;
#X coords 0 1 100 -1 1 1 1;
#X restore 0 0 graph;
#X obj 52 169 round 1;
#X obj 379 179 round 1;
#X obj 379 347 prepend set;
#X obj 20 325 round 1;
#X obj 20 377 round 1 @nearest 0;
#X obj 153 562 format load %s;
#X obj 20 673 sfont~, f 43;
#X obj 406 255 counter 1 16;
#X obj 20 428 t b f;
#X msg 20 530 transp \$1, f 11;
#X connect 0 0 15 0;
#X connect 1 0 2 0;
#X connect 2 0 16 0;
#X connect 5 0 11 1;
#X connect 6 0 14 0;
#X connect 9 0 11 2;
#X connect 10 0 4 0;
#X connect 11 0 13 0;
#X connect 11 0 23 0;
#X connect 12 0 11 3;
#X connect 13 0 32 0;
#X connect 14 0 0 0;
#X connect 14 1 3 0;
#X connect 14 2 10 0;
#X connect 15 1 1 0;
#X connect 15 2 26 0;
#X connect 15 3 27 0;
#X connect 16 0 29 0;
#X connect 17 0 11 0;
#X connect 19 0 33 0;
#X connect 20 0 31 0;
#X connect 21 0 35 0;
#X connect 22 0 21 1;
#X connect 23 0 32 0;
#X connect 24 0 32 0;
#X connect 26 0 1 1;
#X connect 27 0 19 0;
#X connect 27 0 28 0;
#X connect 28 0 17 0;
#X connect 29 0 30 0;
#X connect 30 0 34 0;
#X connect 31 0 32 0;
#X connect 32 0 7 0;
#X connect 32 1 8 0;
#X connect 33 0 18 0;
#X connect 34 0 17 0;
#X connect 34 1 21 0;
#X connect 35 0 32 0;
