#N canvas 0 50 450 388 12;
#X obj 38 138 unpack f f f f;
#X obj 67 214 pack f f f;
#X text 187 55 NOTA \, VEL \, CHANNEL \, DURATION;
#X obj 67 295 outlet;
#X obj 38 25 inlet;
#X obj 38 104 clone Children_wait 32;
#N canvas 0 50 450 250 (subpatch) 0;
#X text 0 0 plugdatainfo <?xml version="1.0" encoding="UTF-8"?> <plugdatainfo/>;
#X coords 0 1 100 -1 1 1 1;
#X restore 0 0 graph;
#X obj 67 248 prepend note;
#X obj 38 54 prepend next;
#X connect 0 1 1 0;
#X connect 0 2 1 1;
#X connect 0 3 1 2;
#X connect 1 0 7 0;
#X connect 4 0 8 0;
#X connect 5 0 0 0;
#X connect 7 0 3 0;
#X connect 8 0 5 0;
