#N canvas 737 54 617 769 12;
#X obj 20 357 cyclone/scale -100 100 4096 12288;
#X obj 21 84 * 0.01;
#X obj 20 214 -;
#X obj 20 239 * 100;
#X obj 72 84 s velocity;
#X obj 153 106 s dur;
#X obj 357 512 r velocity;
#X obj 21 16 inlet;
#X obj 20 717 outlet~;
#X obj 170 717 outlet~;
#X obj 442 511 r channel;
#X obj 139 279 cyclone/round 1 @nearest 0;
#X obj 153 80 abs;
#X obj 419 595 note-off;
#X obj 272 536 pack f f f f, f 37;
#X obj 528 509 r dur;
#X msg 272 592 note \$1 \$2 \$3;
#X obj 21 46 unpack f f f f, f 19;
#X obj 139 301 + 1;
#X obj 50 115 t f f f f;
#X obj 139 257 / 6, f 7;
#X obj 20 691 Fluidsynth/fluidsynth~;
#X obj 20 398 cyclone/round 1 @nearest 0;
#X obj 90 165 cyclone/round 1;
#X obj 139 235 abs;
#X obj 379 153 cyclone/round 1;
#X obj 20 325 cyclone/round 1;
#X obj 20 270 t f f;
#X obj 230 328 s channel;
#X msg 272 503 4;
#X obj 379 301 cyclone/prepend set;
#X obj 20 428 t f b;
#X obj 406 236 s channel;
#X obj 406 181 bng 20 250 50 0 empty empty empty 17 7 0 10 -262144
-1 -1;
#X obj 406 209 cyclone/counter 1 16;
#X obj 37 600 r soundfont;
#X obj 20 493 pack f f;
#X obj 73 465 r channel;
#X msg 20 530 bend \$1 \$2;
#X obj 413 353 r from_om;
#X obj 413 376 route soundfont;
#X obj 413 458 s soundfont;
#X msg 413 428 load \$1;
#X obj 413 402 else/format symbol sf2/%s;
#X connect 0 0 22 0;
#X connect 1 0 19 0;
#X connect 2 0 3 0;
#X connect 3 0 27 0;
#X connect 6 0 14 1;
#X connect 7 0 17 0;
#X connect 10 0 14 2;
#X connect 11 0 18 0;
#X connect 12 0 5 0;
#X connect 13 0 21 0;
#X connect 14 0 16 0;
#X connect 14 0 13 0;
#X connect 15 0 14 3;
#X connect 16 0 21 0;
#X connect 17 0 1 0;
#X connect 17 1 4 0;
#X connect 17 3 12 0;
#X connect 19 1 2 0;
#X connect 19 2 23 0;
#X connect 19 3 25 0;
#X connect 20 0 11 0;
#X connect 21 0 8 0;
#X connect 21 1 9 0;
#X connect 22 0 31 0;
#X connect 23 0 2 1;
#X connect 24 0 20 0;
#X connect 25 0 30 0;
#X connect 25 0 33 0;
#X connect 26 0 0 0;
#X connect 27 0 26 0;
#X connect 27 1 24 0;
#X connect 29 0 14 0;
#X connect 30 0 29 0;
#X connect 31 0 36 0;
#X connect 31 1 29 0;
#X connect 33 0 34 0;
#X connect 34 0 32 0;
#X connect 35 0 21 0;
#X connect 36 0 38 0;
#X connect 37 0 36 1;
#X connect 38 0 21 0;
#X connect 39 0 40 0;
#X connect 40 0 43 0;
#X connect 42 0 41 0;
#X connect 43 0 42 0;
