#N canvas 737 54 644 769 12;
#X obj 20 336 cyclone/scale -100 100 4096 12288;
#X obj 21 84 * 0.01;
#X obj 20 214 -;
#X obj 20 239 * 100;
#X obj 309 462 r nota;
#X obj 72 84 s velocity;
#X obj 153 106 s dur;
#X obj 394 462 r velocity;
#X obj 21 16 inlet;
#X obj 20 717 outlet~;
#X obj 170 717 outlet~;
#X obj 479 461 r channel;
#X obj 316 324 cyclone/round 1 @nearest 0;
#X obj 316 397 s channel;
#X obj 311 196 s nota;
#X obj 153 80 abs;
#X obj 456 545 note-off;
#X obj 309 486 pack f f f f, f 37;
#X obj 565 461 r dur;
#X msg 309 542 note \$1 \$2 \$3;
#X obj 21 46 unpack f f f f, f 19;
#X obj 316 365 + 1;
#X obj 50 115 t f f f f;
#X obj 316 289 / 6, f 7;
#X obj 20 691 Fluidsynth/fluidsynth~;
#X msg 42 593 load \$1;
#X obj 42 529 loadbang;
#X msg 42 566 symbol sf2/AKAI_Steinway;
#X msg 20 422 bend \$1;
#X obj 20 377 cyclone/round 1 @nearest 0;
#X obj 90 165 cyclone/round 1;
#X obj 316 261 abs;
#X obj 311 165 cyclone/round 1;
#X obj 20 304 cyclone/round 1;
#X connect 0 0 29 0;
#X connect 1 0 22 0;
#X connect 2 0 3 0;
#X connect 3 0 31 0;
#X connect 3 0 33 0;
#X connect 4 0 17 0;
#X connect 7 0 17 1;
#X connect 8 0 20 0;
#X connect 11 0 17 2;
#X connect 12 0 21 0;
#X connect 15 0 6 0;
#X connect 16 0 24 0;
#X connect 17 0 19 0;
#X connect 17 0 16 0;
#X connect 18 0 17 3;
#X connect 19 0 24 0;
#X connect 20 0 1 0;
#X connect 20 1 5 0;
#X connect 20 3 15 0;
#X connect 21 0 13 0;
#X connect 22 1 2 0;
#X connect 22 2 30 0;
#X connect 22 3 32 0;
#X connect 23 0 12 0;
#X connect 24 0 9 0;
#X connect 24 1 10 0;
#X connect 25 0 24 0;
#X connect 26 0 27 0;
#X connect 27 0 25 0;
#X connect 28 0 24 0;
#X connect 29 0 28 0;
#X connect 30 0 2 1;
#X connect 31 0 23 0;
#X connect 32 0 14 0;
#X connect 33 0 0 0;
