#N canvas -9 -9 1920 1026 12;
#X obj 582 265 *~;
#X obj 582 189 adc~;
#X obj 621 125 tgl 20 0 empty empty empty 17 7 0 10 -262144 -1 -1 0
1;
#X obj 7 116 vu 30 160 empty empty -1 -8 0 10 -66577 -1 0 0;
#N canvas 329 161 625 417 vu 0;
#X obj 59 129 env~ 1024;
#X obj 161 111 abs~;
#X obj 161 213 snapshot~;
#X obj 161 256 rmstodb;
#X obj 161 21 inlet~;
#X obj 161 288 - 100;
#X obj 59 287 - 100;
#X obj 59 361 outlet;
#X obj 161 361 outlet;
#X text 344 307 Check the help file of env~ and slop~ for more details.
, f 31;
#X obj 239 89 expr 1000 / $f1;
#X floatatom 239 117 5 0 0 0 - - -;
#X obj 161 146 slop~ 0 0 0 0 1e+009;
#X obj 239 18 inlet;
#X floatatom 239 57 5 0 0 0 - - -;
#X text 359 89 convert to hz;
#X text 282 118 hz;
#X text 284 57 peak decay time in ms;
#X obj 59 171 t f b;
#X text 345 132 The env~ object is dedicated to RMS analysis. Its output
is in dB (0-100 range \, pd style) but needs to be converted to dBFS
(and we do that by simply subtracting 100)., f 31;
#X text 345 225 The slop~ object is used here for peak detection. We
need to convert the output to dB with rmstodb and also subtract by
100 to convert it to dBFS., f 31;
#X connect 0 0 18 0;
#X connect 1 0 12 0;
#X connect 2 0 3 0;
#X connect 3 0 5 0;
#X connect 4 0 0 0;
#X connect 4 0 1 0;
#X connect 5 0 8 0;
#X connect 6 0 7 0;
#X connect 10 0 11 0;
#X connect 11 0 12 3;
#X connect 12 0 2 0;
#X connect 13 0 14 0;
#X connect 14 0 10 0;
#X connect 18 0 6 0;
#X connect 18 1 2 0;
#X restore 6 69 pd vu;
#X obj 621 189 line~ 0 100;
#X obj 582 307 *~;
#X msg 643 264 4;
#X floatatom 621 33 5 0 0 0 - - -;
#X obj 925 27 r from_om;
#X obj 925 78 t a b b;
#X obj 6 35 receive~ meter;
#X obj 664 368 writesf~;
#X obj 723 211 sel 1, f 6;
#X msg 418 302 stop;
#X obj 581 367 send~ meter;
#X msg 1030 126 \; pd dsp 1;
#X obj 418 200 sel 0;
#X obj 418 263 bng 15 250 50 0 empty empty empty 17 7 0 10 -262144
-1 -1;
#X msg 621 151 \$1 150;
#X obj 411 8 key;
#X floatatom 411 36 3 0 0 0 - - -;
#X floatatom 528 36 3 0 0 0 - - -;
#X obj 528 10 keyup;
#X obj 411 61 sel 32;
#X msg 411 90 1;
#X obj 528 64 sel 32;
#X msg 528 89 0;
#X obj 418 226 delay 150;
#X msg 419 459 \; pd quit;
#X obj 419 373 delay 200;
#X obj 723 180 spigot;
#X obj 621 69 t f f f;
#X obj 699 94 sel 1;
#X obj 762 145 tgl 15 0 empty empty empty 17 7 0 10 -262144 -1 -1 0
1;
#X msg 699 116 0;
#X msg 768 77 1;
#X obj 1104 126 s loadbang;
#X obj 768 46 r loadbang;
#X obj 643 237 r loadbang;
#X msg 862 425 open C:/Users/charl/OneDrive_usp.br/Documents/OpenMusic/out-files/My-record-2.wav
\;, f 82;
#X msg 811 184 set open, f 10;
#X obj 962 159 t b a;
#X msg 733 258 start;
#X obj 112 119 tgl 40 0 record_toggle record_toggle empty 17 7 0 10
-262144 -258113 -1 0 1;
#X obj 411 126 s record_toggle;
#X obj 621 9 r record_toggle;
#X obj 994 233 s Pathname;
#X text 158 119 Press Space or Toggle to record!;
#X obj 419 422 spigot;
#X obj 114 231 tgl 40 0 close_when_stop close_when_stop empty 17 7
0 10 -262144 -4160 -262144 0 1;
#X obj 496 392 r close_when_stop;
#X obj 1147 86 s close_when_stop;
#X msg 1144 13 1;
#X text 160 242 Close PD before stop record;
#X msg 973 357 add \$1;
#X obj 973 321 pack s;
#X obj 679 154 r turn_off;
#X obj 1071 228 print;
#X msg 1298 199 C:/Users/charl/OneDrive_usp.br/Documents/OpenMusic/out-files/My-record-2.wav
;
#X obj 1130 347 s close_when_stop;
#X obj 528 125 s record_toggle;
#X obj 994 190 route outfile;
#X connect 0 0 6 0;
#X connect 1 0 0 0;
#X connect 2 0 19 0;
#X connect 4 0 3 0;
#X connect 5 0 0 1;
#X connect 6 0 15 0;
#X connect 6 0 12 0;
#X connect 7 0 6 1;
#X connect 8 0 32 0;
#X connect 8 0 17 0;
#X connect 9 0 10 0;
#X connect 10 0 42 0;
#X connect 10 1 41 0;
#X connect 10 2 16 0;
#X connect 10 2 37 0;
#X connect 10 2 53 0;
#X connect 11 0 4 0;
#X connect 13 0 43 0;
#X connect 14 0 12 0;
#X connect 17 0 28 0;
#X connect 18 0 14 0;
#X connect 18 0 30 0;
#X connect 19 0 5 0;
#X connect 20 0 21 0;
#X connect 21 0 24 0;
#X connect 22 0 26 0;
#X connect 23 0 22 0;
#X connect 24 0 25 0;
#X connect 25 0 45 0;
#X connect 26 0 27 0;
#X connect 27 0 61 0;
#X connect 28 0 18 0;
#X connect 30 0 49 0;
#X connect 31 0 13 0;
#X connect 32 0 2 0;
#X connect 32 1 33 0;
#X connect 32 2 31 0;
#X connect 33 0 35 0;
#X connect 34 0 31 1;
#X connect 35 0 34 0;
#X connect 36 0 34 0;
#X connect 38 0 36 0;
#X connect 39 0 7 0;
#X connect 40 0 12 0;
#X connect 41 0 40 0;
#X connect 42 0 40 0;
#X connect 42 1 62 0;
#X connect 43 0 12 0;
#X connect 46 0 8 0;
#X connect 49 0 29 0;
#X connect 51 0 49 1;
#X connect 53 0 52 0;
#X connect 55 0 40 0;
#X connect 56 0 55 0;
#X connect 57 0 31 0;
#X connect 59 0 56 0;
#X connect 62 0 47 0;
#X connect 62 0 56 0;
#X connect 62 0 58 0;
#X coords 0 0 1 1 400 200 2 0 100;
