#N canvas 460 93 1086 783 12;
#X obj 7 7 inlet;
#X obj 7 41 unpack s f f;
#X obj 39 212 else/format open %s;
#X obj 7 256 readsf~;
#X obj 7 79 t 1 s;
#X obj 53 290 bng 25 250 50 0 empty empty empty 17 7 0 10 -262144 -1
-1;
#X msg 7 124 1;
#X msg 354 431 set 1 1 ir1 \, set 1 2 ir1;
#X obj 32 609 outlet~;
#X obj 354 371 bng 30 250 50 0 empty empty empty 17 7 0 10 -262144
-1 -1;
#X obj 35 437 *~;
#X obj 17 348 else/pitch.shift~;
#X floatatom 421 194 5 0 0 0 - - -;
#X obj 500 78 * 0.01;
#X obj 498 220 - 1;
#X obj 498 253 * 100;
#X obj 421 162 else/retune;
#X obj 499 110 t f f;
#X obj 230 230 cyclone/scale 10 127 0.1 0.8;
#X connect 0 0 1 0;
#X connect 1 0 4 0;
#X connect 1 1 18 0;
#X connect 1 2 13 0;
#X connect 2 0 3 0;
#X connect 3 0 11 0;
#X connect 3 1 5 0;
#X connect 4 0 6 0;
#X connect 4 1 2 0;
#X connect 4 1 9 0;
#X connect 6 0 3 0;
#X connect 9 0 7 0;
#X connect 10 0 8 0;
#X connect 11 0 10 0;
#X connect 12 0 14 1;
#X connect 13 0 17 0;
#X connect 14 0 15 0;
#X connect 15 0 11 1;
#X connect 16 0 12 0;
#X connect 17 0 14 0;
#X connect 17 1 16 0;
#X connect 18 0 10 1;
