#N canvas 21 5 1839 988 12;
#X obj 11 408 SOFAlizer/SOFA-Stantdard, f 38;
#X obj 418 32 r from_om;
#X msg 597 90 \; pd dsp 1, f 9;
#X obj 749 291 s sofa_file;
#X obj 98 363 r sofa_file;
#X obj 673 371 route azimuth;
#X obj 673 397 s azimuth;
#X obj 186 295 r azimuth;
#X obj 598 430 route elevation;
#X obj 597 456 s elevation;
#X obj 274 260 r elevation;
#X obj 598 179 t a a a, f 22;
#X obj 11 338 readsf~;
#X obj 11 650 writesf~ 2, f 38;
#X obj 418 155 s audio_data;
#X obj 11 10 r audio_data;
#X obj 11 38 t a a;
#X obj 43 91 s write_audio;
#X obj 375 259 r write_audio;
#X obj 375 425 t b a;
#X msg 375 475 start;
#X obj 43 64 route outfile;
#X obj 11 171 route infile;
#X obj 11 201 t b a;
#X msg 11 257 start;
#X msg 111 547 stop;
#X obj 57 363 s fim;
#X obj 23 430 r fim;
#X obj 23 451 t b b, f 13;
#X msg 23 529 \; pd quit;
#X obj 23 493 delay 400;
#X obj 749 246 symbol;
#X obj 418 58 t a a b, f 26;
#X obj 375 289 else/format open %s;
#X obj 61 258 else/format open %s;
#X obj 749 205 route reverb_file;
#X connect 0 0 13 0;
#X connect 0 1 13 1;
#X connect 1 0 32 0;
#X connect 4 0 0 1;
#X connect 5 0 6 0;
#X connect 7 0 0 2;
#X connect 8 0 9 0;
#X connect 10 0 0 3;
#X connect 11 0 8 0;
#X connect 11 1 5 0;
#X connect 11 2 35 0;
#X connect 12 0 0 0;
#X connect 12 1 26 0;
#X connect 15 0 16 0;
#X connect 16 0 22 0;
#X connect 16 1 21 0;
#X connect 18 0 33 0;
#X connect 19 0 20 0;
#X connect 19 1 13 0;
#X connect 20 0 13 0;
#X connect 21 0 17 0;
#X connect 22 0 23 0;
#X connect 23 0 24 0;
#X connect 23 1 34 0;
#X connect 24 0 12 0;
#X connect 25 0 13 0;
#X connect 27 0 28 0;
#X connect 28 0 30 0;
#X connect 28 1 25 0;
#X connect 30 0 29 0;
#X connect 31 0 3 0;
#X connect 32 0 14 0;
#X connect 32 1 11 0;
#X connect 32 2 2 0;
#X connect 33 0 19 0;
#X connect 34 0 12 0;
#X connect 35 0 31 0;
