#N canvas 288 133 1343 673 16;
#X msg 29 126 start;
#X obj 29 185 readsf~ 1;
#X msg 146 185 set 1 1 ir1;
#X obj 29 422 piro/multiconvolve~ 1 2 zero;
#X msg 276 185 set 1 2 ir1;
#X obj 30 491 *~ 0.3;
#X obj 105 493 *~ 0.3;
#X obj 549 185 r from_om;
#X msg 806 267 \; pd dsp 1, f 16;
#X obj 1065 374 route outfile;
#X obj 312 582 writesf~ 2;
#X obj 549 221 t a b, f 26;
#N canvas 155 202 649 371 soundfiler-read 0;
#X obj 39 129 soundfiler;
#X floatatom 39 150 7 0 0 0 - - -;
#X obj 39 57 inlet;
#N canvas 762 233 969 508 spaces 0;
#X msg 34 41 set symbol \, add2 \$1;
#X msg 34 82 symbol C:/Users/charl/OneDrive_usp.br/Documents/Samples/OrchideaSOL2020/Brass/Bass_Tuba/blow/BTb-blow-N-p-N-N.wav
;
#X obj 19 9 inlet;
#X obj 18 212 outlet;
#X msg 18 176 read -resize \$1 ir1;
#X connect 0 0 1 0;
#X connect 1 0 4 0;
#X connect 2 0 0 0;
#X connect 2 0 4 0;
#X connect 4 0 3 0;
#X restore 39 97 pd spaces;
#X connect 0 0 1 0;
#X connect 2 0 3 0;
#X connect 3 0 0 0;
#X restore 829 409 pd soundfiler-read;
#X obj 829 372 route reverb_file;
#N canvas 0 50 969 508 with-spaces 0;
#X msg 34 41 set symbol \, add2 \$1;
#X msg 34 82 symbol C:/Users/charl/OneDrive_usp.br/Documents/Samples/OrchideaSOL2020/Brass/Bass_Tuba/blow/BTb-blow-N-p-N-N.wav
;
#X obj 19 9 inlet;
#X obj 18 212 outlet;
#X msg 18 176 open \$1;
#X connect 0 0 1 0;
#X connect 1 0 4 0;
#X connect 2 0 0 0;
#X connect 2 0 4 0;
#X connect 4 0 3 0;
#X restore 1065 402 pd with-spaces;
#X obj 549 326 t a b a a, f 55;
#X obj 671 377 s set-reverb;
#X obj 146 148 r set-reverb;
#X obj 549 415 route infile;
#N canvas 0 50 969 508 with-spaces 0;
#X msg 34 41 set symbol \, add2 \$1;
#X msg 34 82 symbol C:/Users/charl/OneDrive_usp.br/Documents/Samples/OrchideaSOL2020/Brass/Bass_Tuba/blow/BTb-blow-N-p-N-N.wav
;
#X obj 19 9 inlet;
#X obj 18 212 outlet;
#X msg 18 176 open \$1;
#X connect 0 0 1 0;
#X connect 1 0 4 0;
#X connect 2 0 0 0;
#X connect 2 0 4 0;
#X connect 4 0 3 0;
#X restore 549 451 pd with-spaces;
#X obj 548 487 s open-file;
#X obj 29 34 r open-file;
#X obj 29 85 t b a;
#X obj 321 271 t b b;
#X msg 368 347 stop;
#X msg 186 347 \; pd dsp 1, f 16;
#X obj 321 244 delay 2000;
#X connect 0 0 1 0;
#X connect 1 0 3 0;
#X connect 1 1 26 0;
#X connect 2 0 3 0;
#X connect 3 0 5 0;
#X connect 3 1 6 0;
#X connect 4 0 3 0;
#X connect 5 0 10 0;
#X connect 6 0 10 1;
#X connect 7 0 11 0;
#X connect 9 0 14 0;
#X connect 11 0 15 0;
#X connect 11 1 8 0;
#X connect 13 0 12 0;
#X connect 14 0 10 0;
#X connect 15 0 18 0;
#X connect 15 1 16 0;
#X connect 15 2 13 0;
#X connect 15 3 9 0;
#X connect 17 0 4 0;
#X connect 17 0 2 0;
#X connect 18 0 19 0;
#X connect 19 0 20 0;
#X connect 21 0 22 0;
#X connect 22 0 0 0;
#X connect 22 1 1 0;
#X connect 23 0 25 0;
#X connect 23 1 24 0;
#X connect 24 0 10 0;
#X connect 26 0 23 0;
