#N canvas 245 8 1535 854 16;
#X msg 29 116 start;
#X obj 29 254 readsf~ 1;
#X msg 265 187 set 1 1 ir1;
#X obj 29 422 piro/multiconvolve~ 1 2 zero;
#X msg 395 187 set 1 2 ir1;
#X msg 937 130 \; pd dsp 1, f 16;
#X obj 34 714 writesf~ 2;
#N canvas 155 202 537 322 soundfiler-read 0;
#X obj 15 137 soundfiler;
#X floatatom 15 198 7 0 0 0 - - -;
#X obj 15 21 inlet;
#X obj 15 67 else/format read -resize %s ir1;
#X obj 15 267 s set-reverb;
#X obj 15 245 bng 15 250 50 0 empty empty empty 17 7 0 10 -262144 -1
-1;
#X connect 0 0 1 0;
#X connect 1 0 5 0;
#X connect 2 0 3 0;
#X connect 3 0 0 0;
#X connect 5 0 4 0;
#X restore 660 93 pd soundfiler-read;
#X obj 282 98 r set-reverb;
#X obj 29 85 t b a;
#X obj 322 292 t b b;
#X msg 368 347 stop;
#X obj 321 244 delay 2000;
#X msg 186 347 \; pd quit, f 16;
#N canvas 303 313 337 187 table 0;
#N canvas 0 23 450 278 (subpatch) 0;
#X array ir1 225576 float 2;
#X coords 0 1 225576 -1 200 140 1 0 0;
#X restore 25 42 graph;
#X restore 660 129 pd table;
#X obj 75 151 else/format open %s;
#X obj 410 604 t b a;
#X msg 410 651 start;
#X obj 410 569 else/format open %s;
#X obj 410 533 r outfile;
#X obj 30 491 *~ 1;
#X obj 303 493 *~ 1;
#X obj 91 210 print infile;
#X obj 340 452 r gain;
#X obj 660 22 r reverb_file;
#X obj 28 48 r infile;
#X obj 937 95 loadbang;
#X connect 0 0 1 0;
#X connect 1 0 3 0;
#X connect 1 1 12 0;
#X connect 2 0 3 0;
#X connect 3 0 20 0;
#X connect 3 1 21 0;
#X connect 4 0 3 0;
#X connect 8 0 4 0;
#X connect 8 0 2 0;
#X connect 9 0 0 0;
#X connect 9 1 15 0;
#X connect 10 0 13 0;
#X connect 10 1 11 0;
#X connect 11 0 6 0;
#X connect 12 0 10 0;
#X connect 15 0 1 0;
#X connect 15 0 22 0;
#X connect 16 0 17 0;
#X connect 16 1 6 0;
#X connect 17 0 6 0;
#X connect 18 0 16 0;
#X connect 19 0 18 0;
#X connect 20 0 6 0;
#X connect 21 0 6 1;
#X connect 23 0 21 1;
#X connect 23 0 20 1;
#X connect 24 0 7 0;
#X connect 25 0 9 0;
#X connect 26 0 5 0;
