#N canvas 245 8 1343 854 16;
#X msg 29 116 start;
#X obj 29 254 readsf~ 1;
#X msg 265 187 set 1 1 ir1;
#X obj 29 422 piro/multiconvolve~ 1 2 zero;
#X msg 395 187 set 1 2 ir1;
#X obj 549 138 r from_om;
#X msg 806 267 \; pd dsp 1, f 16;
#X obj 1027 415 route outfile;
#X obj 34 714 writesf~ 2;
#X obj 549 221 t a b, f 26;
#N canvas 155 202 649 371 soundfiler-read 0;
#X obj 43 173 soundfiler;
#X floatatom 43 234 7 0 0 0 - - -;
#X obj 39 57 inlet;
#X obj 40 103 else/format read -resize %s ir1;
#X obj 168 174 print REVERB_FILE;
#X connect 0 0 1 0;
#X connect 2 0 3 0;
#X connect 3 0 0 0;
#X connect 3 0 4 0;
#X restore 833 488 pd soundfiler-read;
#X obj 833 417 route reverb_file;
#X obj 655 418 s set-reverb;
#X obj 282 98 r set-reverb;
#X obj 463 413 route infile;
#X obj 462 452 s open-file;
#X obj 29 34 r open-file;
#X obj 29 85 t b a;
#X obj 322 292 t b b;
#X msg 368 347 stop;
#X obj 321 244 delay 2000;
#X msg 186 347 \; pd quit, f 16;
#N canvas 303 313 337 187 table 0;
#N canvas 0 23 450 278 (subpatch) 0;
#X array ir1 225576 float 2;
#X coords 0 1 225576 -1 200 140 1 0 0;
#X restore 25 42 graph;
#X restore 851 538 pd table;
#X obj 75 151 else/format open %s;
#X obj 1026 465 s outfile;
#X obj 410 604 t b a;
#X msg 410 651 start;
#X obj 410 569 else/format open %s;
#X obj 410 539 r outfile;
#X obj 30 491 *~ 1;
#X obj 303 493 *~ 1;
#X obj 91 210 print infile;
#X msg 801 41 outfile C:/Users/charl/OneDrive_usp.br/Documents/OpenMusic/out-files/IR2.wav
\, infile C:/Users/charl/Documents/OM#/temp-files/16853.wav \, reverb_file
C:/Users/charl/Documents/OM#/temp-files/1.aif \,;
#X obj 549 326 t a b a a a, f 55;
#X obj 1180 414 route gain;
#X obj 1178 470 s gain;
#X obj 340 452 r gain;
#X connect 0 0 1 0;
#X connect 1 0 3 0;
#X connect 1 1 20 0;
#X connect 2 0 3 0;
#X connect 3 0 29 0;
#X connect 3 1 30 0;
#X connect 4 0 3 0;
#X connect 5 0 9 0;
#X connect 7 0 24 0;
#X connect 9 0 33 0;
#X connect 9 1 6 0;
#X connect 11 0 10 0;
#X connect 13 0 4 0;
#X connect 13 0 2 0;
#X connect 14 0 15 0;
#X connect 16 0 17 0;
#X connect 17 0 0 0;
#X connect 17 1 23 0;
#X connect 18 0 21 0;
#X connect 18 1 19 0;
#X connect 19 0 8 0;
#X connect 20 0 18 0;
#X connect 23 0 1 0;
#X connect 23 0 31 0;
#X connect 25 0 26 0;
#X connect 25 1 8 0;
#X connect 26 0 8 0;
#X connect 27 0 25 0;
#X connect 28 0 27 0;
#X connect 29 0 8 0;
#X connect 30 0 8 1;
#X connect 32 0 9 0;
#X connect 33 0 14 0;
#X connect 33 1 12 0;
#X connect 33 2 11 0;
#X connect 33 3 7 0;
#X connect 33 4 34 0;
#X connect 34 0 35 0;
#X connect 36 0 30 1;
#X connect 36 0 29 1;
