#N canvas 160 62 694 560 12;
#X obj 172 43 nbx 5 20 -1e+037 1e+037 0 0 empty empty empty 0 -8 0
20 -262144 -1 -1 121 256;
#X obj 172 84 expr (60/$f1)*1000;
#X obj 140 86 tgl 15 0 empty empty empty 17 7 0 10 -262144 -1 -1 0
1;
#X obj 140 114 metro;
#X obj 140 169 vline~;
#X msg 140 140 1 20 \, 0 20 20;
#X obj 140 201 *~;
#X obj 140 225 *~ 0.3;
#X msg 30 60 \; pd dsp 1;
#X obj 20 3 loadbang;
#X obj 28 197 *~;
#X msg 20 103 0 \, 1 1000;
#X obj 28 229 dac~;
#X obj 172 9 r bpm;
#X obj 20 130 line~;
#X msg 140 60 1;
#X obj 191 169 osc~ 600;
#X obj 39 166 cyclone/click~;
#X connect 0 0 1 0;
#X connect 1 0 3 1;
#X connect 2 0 3 0;
#X connect 3 0 5 0;
#X connect 3 0 17 0;
#X connect 4 0 6 0;
#X connect 5 0 4 0;
#X connect 6 0 7 0;
#X connect 7 0 10 0;
#X connect 9 0 8 0;
#X connect 9 0 11 0;
#X connect 9 0 15 0;
#X connect 10 0 12 0;
#X connect 10 0 12 1;
#X connect 11 0 14 0;
#X connect 13 0 0 0;
#X connect 14 0 10 1;
#X connect 15 0 2 0;
#X connect 16 0 6 1;
#X connect 17 0 10 0;
