#N canvas 520 71 1396 862 12;
#X declare -path cyclone;
#X declare -path else;
#X obj 22 130 oscparse;
#X obj 22 20 loadbang;
#X text 110 222 NOTA \, VEL \, CHANNEL \, DURATION;
#X msg 159 100 \; pd dsp 1, f 19;
#X obj 22 397 Microtonal-Playback/Children_Microtonal-player;
#X msg 22 82 listen 3000;
#X obj 22 107 netreceive -u -b;
#X obj 22 173 route list;
#X obj 22 198 route om#;
#X obj 22 223 route note;
#X obj 351 7 bng 61 250 50 0 empty empty empty 17 7 0 10 #b41717 #a05a5a #a61c1c;
#N canvas 0 50 450 250 (subpatch) 0;
#X text 0 0 plugdatainfo <?xml version="1.0" encoding="UTF-8"?> <plugdatainfo><InfoObj ID="16.M....T....P.....B....." Updated="0" Segmented="1" Path="32......D..........J....Lv+++uB....C7+++2A...."/><InfoObj ID="16.C....D................" Updated="0" Segmented="1" Path="32......D..........Y....nG...PF....5A...DC...."/><InfoObj ID="16.P....HA.........A....." Updated="0" Segmented="1" Path="32......D..........qB....p++++p....f5+++iK...."/><InfoObj ID="16.O....HA.........A....." Updated="0" Segmented="1" Path="32......D..........lB...Tk+++uo....U4+++iK...."/><InfoObj ID="16.P....P..........B....." Updated="0" Segmented="1" Path="32......D..........L....ry+++OC....67+++SB...."/><InfoObj ID="16.K.....A...P.....A....." Updated="0" Segmented="1" Path="32......D..........H....j7+++OB....I++++GA...."/><InfoObj ID="16.O....P..........A....." Updated="0" Segmented="1" Path="32......D..........S.........vD.........PB...."/><InfoObj ID="16.K....7..........A....." Updated="0" Segmented="1" Path="32......D..........O.........vC.........zA...."/><InfoObj ID="16.d...............A....." Updated="0" Segmented="1" Path="32......D..........J....jH...fB....IB...HA...."/><InfoObj ID="16.g....j..........B....." Updated="0" Segmented="1" Path="32......D..........n....XE....J....VA...3D...."/></plugdatainfo>;
#X coords 0 1 100 -1 1 1 1;
#X restore 0 0 graph;
#X obj 22 502 dac~, f 14;
#X obj 632 34 declare -path cyclone;
#X obj 632 60 declare -path else;
#N canvas 733 172 450 300 (subpatch) 1;
#X obj 410 135 openpanel;
#X msg 410 166 open \$1;
#X obj 410 223 s soundfont-loader;
#X obj 402 52 inlet;
#N canvas 0 50 450 250 (subpatch) 0;
#X text 0 0 plugdatainfo <?xml version="1.0" encoding="UTF-8"?> <plugdatainfo/>;
#X coords 0 1 100 -1 1 1 1;
#X restore 0 0 graph;
#X msg 513 166 panic, f 7;
#X obj 547 110 inlet;
#X connect 0 0 1 0;
#X connect 1 0 2 0;
#X connect 3 0 0 0;
#X connect 5 0 2 0;
#X connect 6 0 5 0;
#X restore 351 107 pd;
#X f 7;
#X obj 22 464 giga.rev~;
#X obj 97 464 giga.rev~;
#X obj 452 33 vradio 22 1 0 10 empty empty empty 0 -8 0 10 #dcdcdc #000000 #000000 0;
#N canvas 728 150 712 728 presets 1;
#X obj 73 21 inlet;
#X obj 88 576 s \$0-set;
#X obj 103 516 s \$0-set;
#X obj 118 453 s \$0-set;
#X obj 134 393 s \$0-set;
#X text 145 577 bathroom;
#X text 162 518 living room;
#X msg 73 608 size 40 \, decay 4 \, damp 0.9 \, bw 0.75 \, dry 1 \, early 0.795 \, late 0.04, f 66;
#X obj 73 633 s \$0-set;
#X text 130 634 "quick fix";
#X obj 149 333 s \$0-set;
#X obj 164 277 s \$0-set;
#X text 234 217 Last row of the church;
#X msg 180 194 size 200 \, decay 9 \, damp 0.7 \, bw 0.8 \, dry 0.1 \, early 0.18 \, late 0.4, f 66;
#X obj 180 216 s \$0-set;
#X obj 195 163 s \$0-set;
#X obj 210 109 s \$0-set;
#X obj 73 62 select 0 1 2 3 4 5 6 7 8 9;
#X msg 118 427 size 50 \, decay 1.5 \, damp 0.1 \, bw 0.75 \, dry 0.84 \, early 0.31 \, late 0.1, f 69;
#X text 179 453 Bright \, small hall;
#X msg 134 369 size 40 \, decay 20 \, damp 0.5 \, bw 0.75 \, dry 1 \, early 0.31 \, late 0.031, f 67;
#X text 191 395 Nice hall effect;
#X msg 149 309 size 6 \, decay 15 \, damp 0.9 \, bw 0.1 \, dry 0.31 \, early 0.31 \, late 0.31, f 67;
#X text 207 333 Singing in the Sewer;
#X text 220 278 church;
#X text 251 164 cathedral;
#X text 264 110 canyon;
#X msg 210 86 size 300 \, decay 103 \, damp 0.43 \, bw 0.51 \, dry 0.55 \, early 0.05 \, late 0.1, f 71;
#X msg 195 141 size 143 \, decay 7 \, damp 0.71 \, bw 0.34 \, dry 0.7 \, early 0.28 \, late 0.35, f 69;
#X msg 164 252 size 80 \, decay 4.85 \, damp 0.41 \, bw 0.69 \, dry 0.7 \, early 0.35 \, late 0.28, f 71;
#X msg 103 492 size 16 \, decay 1.24 \, damp 0.18 \, bw 0.95 \, dry 0.7 \, early 0.18 \, late 0.14, f 71;
#X msg 88 550 size 5 \, decay 0.6 \, damp 0.62 \, bw 0.48 \, dry 0.5 \, early 0.25 \, late 0.25, f 69;
#X obj 328 679 outlet;
#X obj 328 648 r \$0-set;
#X connect 0 0 17 0;
#X connect 7 0 8 0;
#X connect 13 0 14 0;
#X connect 17 0 7 0;
#X connect 17 1 31 0;
#X connect 17 2 30 0;
#X connect 17 3 18 0;
#X connect 17 4 20 0;
#X connect 17 5 22 0;
#X connect 17 6 29 0;
#X connect 17 7 13 0;
#X connect 17 8 28 0;
#X connect 17 9 27 0;
#X connect 18 0 3 0;
#X connect 20 0 4 0;
#X connect 22 0 10 0;
#X connect 27 0 16 0;
#X connect 28 0 15 0;
#X connect 29 0 11 0;
#X connect 30 0 2 0;
#X connect 31 0 1 0;
#X connect 33 0 32 0;
#X restore 450 259 pd presets;
#X text 537 76 presets \;;
#X text 529 111 - bathroom, f 13;
#X text 529 95 - "quick fix";
#X text 529 126 - living room;
#X text 529 186 - church;
#X text 529 171 - singing in the Sewer;
#X text 529 157 - nice hall effect;
#X text 529 141 - bright \, small hall;
#X text 529 201 - last row of the church;
#X text 529 216 - cathedral;
#X text 529 231 - canyon;
#X obj 159 169 bng 46 250 50 0 empty empty empty 17 7 0 10 #ffffff #000000 #5a5a5a;
#X text 426 6 <= Choose your soundfont, f 22;
#X obj 358 250 bng 25 250 50 0 empty empty empty 17 7 0 10 #ffffff #000000 #5a5a5a;
#X obj 108 322 counter;
#X obj 108 293 metro 1;
#X obj 108 250 tgl 25 0 empty empty empty 17 7 0 10 #ffffff #000000 #5a5a5a 0 1;
#X obj 174 259 loadbang;
#X obj 331 397 bng 25 250 50 0 empty empty empty 17 7 0 10 #ffffff #000000 #5a5a5a;
#X obj 108 362 nbx 4 18 -1e+37 1e+37 0 0 empty empty empty 0 -8 0 10 #ffffff #5a5a5a #5a5a5a 0 256;
#X obj 331 345 sel 15000;
#X connect 0 0 7 0;
#X connect 0 0 31 0;
#X connect 1 0 5 0;
#X connect 1 0 3 0;
#X connect 4 0 16 0;
#X connect 4 1 17 0;
#X connect 5 0 6 0;
#X connect 6 0 0 0;
#X connect 7 0 8 0;
#X connect 8 0 9 0;
#X connect 9 0 4 0;
#X connect 9 0 34 0;
#X connect 10 0 15 0;
#X connect 16 0 12 0;
#X connect 17 0 12 1;
#X connect 18 0 19 0;
#X connect 19 0 17 0;
#X connect 19 0 16 0;
#X connect 33 0 15 1;
#X connect 34 0 39 0;
#X connect 34 0 40 0;
#X connect 35 0 34 0;
#X connect 36 0 35 0;
#X connect 37 0 36 0;
#X connect 40 0 33 0;
#X connect 40 0 38 0;
