#N canvas 530 212 565 606 12;
#X obj 21 552 dac~, f 35;
#X obj 22 125 netreceive -u -b;
#X obj 22 150 oscparse;
#X obj 22 20 loadbang;
#X text 202 198 NOTA \, VEL \, CHANNEL \, DURATION;
#X text 204 20 This software use the code work of Alexandre Porres!
, f 29;
#X obj 22 175 route list;
#X msg 45 52 \; pd dsp 1;
#X obj 22 199 route note quit-pd, f 24;
#X msg 40 319 \; pd quit;
#X obj 41 302 bng 15 250 50 0 empty empty empty 17 7 0 10 -262144 -1
-1;
#X obj 105 342 print;
#X msg 105 319 PD Finalizado com Sucesso!;
#N canvas 0 50 465 302 Send-to-OM# 0;
#X obj 14 4 loadbang;
#X obj 14 36 t b b, f 21;
#X msg 31 203 disconnect;
#X obj 12 245 netsend -u -b;
#X obj 13 128 list prepend send;
#X obj 13 153 list trim;
#X obj 13 99 oscformat pd;
#X msg 128 201 connect localhost 3320;
#X msg 14 66 1;
#X connect 0 0 1 0;
#X connect 1 0 8 0;
#X connect 1 1 7 0;
#X connect 2 0 3 0;
#X connect 4 0 5 0;
#X connect 5 0 3 0;
#X connect 6 0 4 0;
#X connect 7 0 3 0;
#X connect 8 0 6 0;
#X restore 89 20 pd Send-to-OM#;
#X msg 22 100 listen 1996 127.0.0.1;
#X obj 103 230 t b b b;
#X obj 300 319 line, f 8;
#X obj 20 502 *~;
#X obj 262 509 *~, f 4;
#X obj 125 470 r gain;
#X obj 300 387 s gain;
#X obj 415 316 loadbang;
#X msg 415 343 1;
#X msg 200 269 1 \, 0 250 1;
#X obj 60 269 del 250;
#X obj 21 444 Microtonal-Playback/Children_Microtonal-player;
#X connect 1 0 2 0;
#X connect 2 0 6 0;
#X connect 3 0 14 0;
#X connect 3 0 7 0;
#X connect 6 0 8 0;
#X connect 8 0 25 0;
#X connect 8 1 15 0;
#X connect 10 0 9 0;
#X connect 12 0 11 0;
#X connect 14 0 1 0;
#X connect 15 0 24 0;
#X connect 15 1 12 0;
#X connect 15 2 23 0;
#X connect 16 0 20 0;
#X connect 17 0 0 0;
#X connect 18 0 0 1;
#X connect 19 0 17 1;
#X connect 19 0 18 0;
#X connect 21 0 22 0;
#X connect 22 0 20 0;
#X connect 23 0 16 0;
#X connect 24 0 10 0;
#X connect 25 0 17 0;
#X connect 25 1 18 1;
