#N canvas 530 212 435 440 12;
#X obj 21 408 dac~, f 37;
#X obj 22 125 netreceive -u -b;
#X obj 22 150 oscparse;
#X obj 22 20 loadbang;
#X text 202 198 NOTA \, VEL \, CHANNEL \, DURATION;
#X text 204 20 This software use the code work of Alexandre Porres!
, f 29;
#X obj 22 175 route list;
#X obj 21 380 Microtonal-Playback/Microtonal-player;
#X msg 45 52 \; pd dsp 1;
#X obj 22 199 route note quit-pd, f 24;
#X msg 126 274 \; pd quit;
#X obj 127 257 bng 15 250 50 0 empty empty empty 17 7 0 10 -262144
-1 -1;
#X obj 127 232 t b b;
#X obj 191 297 print;
#X msg 191 274 PD Finalizado com Sucesso!;
#N canvas 0 50 465 302 Send-to-OM# 0;
#X obj 14 4 loadbang;
#X obj 14 36 t b b, f 21;
#X msg 31 203 disconnect;
#X obj 12 245 netsend -u -b;
#X obj 13 128 list prepend send;
#X obj 13 153 list trim;
#X obj 13 99 oscformat pd;
#X msg 14 66 100;
#X msg 128 201 connect localhost 3320;
#X connect 0 0 1 0;
#X connect 1 0 7 0;
#X connect 1 1 8 0;
#X connect 2 0 3 0;
#X connect 4 0 5 0;
#X connect 5 0 3 0;
#X connect 6 0 4 0;
#X connect 7 0 6 0;
#X connect 8 0 3 0;
#X restore 89 20 pd Send-to-OM#;
#X msg 55 323 6000 80 2 500;
#X msg 161 323 6020 80 2 500;
#X msg 22 100 listen 1996 127.0.0.1;
#X connect 1 0 2 0;
#X connect 2 0 6 0;
#X connect 3 0 18 0;
#X connect 3 0 8 0;
#X connect 6 0 9 0;
#X connect 7 0 0 0;
#X connect 7 1 0 1;
#X connect 9 0 7 0;
#X connect 9 1 12 0;
#X connect 11 0 10 0;
#X connect 12 0 11 0;
#X connect 12 1 14 0;
#X connect 14 0 13 0;
#X connect 16 0 7 0;
#X connect 17 0 7 0;
#X connect 18 0 1 0;
