#N canvas 390 131 1242 725 10;
#X obj 28 142 receive~ infile-sound;
#X msg 17 109 pos_src 1 \$1 \$2 0;
#X obj 19 8 receive xy;
#X obj 17 175 OA/audce_L3_amb_3rd~ 3 1, f 41;
#X obj 17 224 OA/audce_L4_amb_3rd~ 3 1, f 41;
#X obj 260 292 *~ 2;
#X obj 17 297 *~ 2;
#X obj 281 256 receive gain;
#X obj 38 260 receive gain;
#X obj 17 322 dac~, f 41;
#X obj 428 86 s gain;
#X obj 428 11 loadbang;
#X msg 428 43 2;
#X obj 182 27 oscparse;
#X obj 182 7 netreceive -u -b 3000;
#X obj 182 51 route list;
#X obj 182 74 route azimuth elevation roll;
#X obj 424 128 fftease/sfplay~;
#X obj 424 211 send~ infile-sound;
#X obj 182 102 pack f f;
#X connect 0 0 3 0;
#X connect 1 0 3 0;
#X connect 2 0 1 0;
#X connect 3 0 4 0;
#X connect 3 1 4 1;
#X connect 3 2 4 2;
#X connect 3 3 4 3;
#X connect 3 4 4 4;
#X connect 3 5 4 5;
#X connect 3 6 4 6;
#X connect 3 7 4 7;
#X connect 3 8 4 8;
#X connect 3 9 4 9;
#X connect 3 10 4 10;
#X connect 3 11 4 11;
#X connect 3 12 4 12;
#X connect 3 13 4 13;
#X connect 3 14 4 14;
#X connect 3 15 4 15;
#X connect 4 0 6 0;
#X connect 4 1 5 0;
#X connect 5 0 9 1;
#X connect 6 0 9 0;
#X connect 7 0 5 1;
#X connect 8 0 6 1;
#X connect 11 0 12 0;
#X connect 12 0 10 0;
#X connect 13 0 15 0;
#X connect 14 0 13 0;
#X connect 15 0 16 0;
#X connect 16 0 19 0;
#X connect 16 1 19 1;
#X connect 17 0 18 0;
#X connect 19 0 1 0;
