#N canvas 388 219 1242 525 10;
#X obj 569 18 r from_om;
#X obj 569 44 t a b b, f 26;
#X msg 722 70 \; pd dsp 1, f 16;
#X obj 645 70 s loadbang;
#N canvas 0 50 537 377 outfile 0;
#X obj 15 2 inlet;
#X msg 156 58 set open, f 10;
#X msg 15 105 add \$1;
#X obj 15 79 pack s;
#X obj 15 24 t a b, f 24;
#X obj 15 157 outlet;
#X connect 0 0 4 0;
#X connect 1 0 5 0;
#X connect 2 0 5 0;
#X connect 3 0 2 0;
#X connect 4 0 3 0;
#X connect 4 1 1 0;
#X restore 656 177 pd outfile;
#X msg 656 208 open C:/Users/charl/OneDrive_usp.br/Documents/OpenMusic/out-files/My-record-2.wav
\;, f 86;
#X obj 19 282 writesf~ 2, f 39;
#X obj 404 349 readsf~;
#X msg 404 302 open C:/Users/charl/OneDrive_usp.br/Documents/OpenMusic/out-files/My-record-2.wav
\;, f 84;
#X msg 371 302 1;
#N canvas 0 50 537 377 om_infile 0;
#X obj 15 2 inlet;
#X msg 156 58 set open, f 10;
#X msg 86 75 add \$1;
#X obj 86 49 pack s;
#X obj 15 157 outlet;
#X obj 15 24 t b a b, f 24;
#X connect 0 0 5 0;
#X connect 1 0 4 0;
#X connect 2 0 4 0;
#X connect 3 0 2 0;
#X connect 5 0 4 0;
#X connect 5 1 3 0;
#X connect 5 2 1 0;
#X restore 404 264 pd om_infile;
#X obj 404 443 send~ infile-sound;
#X obj 41 61 receive~ infile-sound;
#X msg 19 38 pos_src 1 \$1 \$2 0;
#X obj 741 173 send xy;
#X obj 19 8 receive xy;
#X obj 741 144 route xy;
#X obj 371 202 route infile;
#X obj 656 144 route outfile;
#X obj 656 252 send pd-write;
#X obj 50 237 receive pd-write;
#X obj 371 231 t b a, f 6;
#X obj 653 468 send record;
#X obj 155 238 receive record;
#X msg 654 430 start;
#X msg 618 430 stop;
#X obj 538 412 t b b;
#X msg 538 470 \; pd quit, f 16;
#X obj 19 121 OA/audce_L3_amb_3rd~ 3 1, f 41;
#X obj 19 170 OA/audce_L4_amb_3rd~ 3 1, f 41;
#X obj 854 250 print xy;
#X obj 522 168 t b b, f 18;
#X obj 263 238 *~ 2;
#X obj 19 237 *~ 2;
#X obj 569 99 t a b a a a, f 15;
#X obj 800 144 route gain;
#X obj 800 175 send gain;
#X obj 284 202 receive gain;
#X obj 40 200 receive gain;
#X msg 182 32 As variaveis deste patch sao: xy gain;
#X obj 182 11 loadbang;
#X obj 182 58 print AVISO;
#X obj 522 225 send start_record;
#X obj 654 388 r start_record;
#X obj 443 376 delay 50;
#X obj 538 439 delay 20;
#X text 352 297;
#X connect 0 0 1 0;
#X connect 1 0 34 0;
#X connect 1 1 3 0;
#X connect 1 2 2 0;
#X connect 4 0 5 0;
#X connect 5 0 19 0;
#X connect 7 0 11 0;
#X connect 7 1 44 0;
#X connect 8 0 7 0;
#X connect 9 0 7 0;
#X connect 10 0 8 0;
#X connect 12 0 28 0;
#X connect 13 0 28 0;
#X connect 15 0 13 0;
#X connect 16 0 14 0;
#X connect 17 0 21 0;
#X connect 18 0 4 0;
#X connect 20 0 6 0;
#X connect 21 0 9 0;
#X connect 21 1 10 0;
#X connect 23 0 6 0;
#X connect 24 0 22 0;
#X connect 25 0 22 0;
#X connect 26 0 45 0;
#X connect 26 1 25 0;
#X connect 28 0 29 0;
#X connect 28 1 29 1;
#X connect 28 2 29 2;
#X connect 28 3 29 3;
#X connect 28 4 29 4;
#X connect 28 5 29 5;
#X connect 28 6 29 6;
#X connect 28 7 29 7;
#X connect 28 8 29 8;
#X connect 28 9 29 9;
#X connect 28 10 29 10;
#X connect 28 11 29 11;
#X connect 28 12 29 12;
#X connect 28 13 29 13;
#X connect 28 14 29 14;
#X connect 28 15 29 15;
#X connect 29 0 33 0;
#X connect 29 1 32 0;
#X connect 31 0 42 0;
#X connect 31 1 5 0;
#X connect 32 0 6 1;
#X connect 33 0 6 0;
#X connect 34 0 17 0;
#X connect 34 1 31 0;
#X connect 34 2 18 0;
#X connect 34 3 16 0;
#X connect 34 4 35 0;
#X connect 35 0 36 0;
#X connect 37 0 32 1;
#X connect 38 0 33 1;
#X connect 39 0 41 0;
#X connect 40 0 39 0;
#X connect 43 0 24 0;
#X connect 44 0 26 0;
#X connect 45 0 27 0;
