#N canvas 21 5 1839 988 12;
#X obj 11 408 SOFAlizer/SOFA-Stantdard, f 38;
#X msg 164 44 \; pd dsp 1, f 9;
#X obj 98 365 r sofa_file;
#X obj 186 295 r azimuth;
#X obj 274 295 r elevation;
#X obj 11 241 readsf~;
#X obj 11 591 writesf~ 2, f 38;
#X obj 375 425 t b a;
#X msg 375 475 start;
#X obj 11 155 t b a;
#X msg 11 191 start;
#X msg 111 547 stop;
#X obj 57 273 s fim2;
#X obj 23 430 r fim;
#X obj 23 451 t b b, f 13;
#X msg 23 529 \; pd dsp 1;
#X obj 23 493 delay 400;
#X obj 375 389 else/format open %s;
#X obj 114 197 else/format open %s;
#X obj 375 353 r outfile;
#X obj 11 11 r infile;
#X obj 164 14 loadbang, f 26;
#X connect 0 0 6 0;
#X connect 0 1 6 1;
#X connect 2 0 0 1;
#X connect 3 0 0 2;
#X connect 4 0 0 3;
#X connect 5 0 0 0;
#X connect 5 1 12 0;
#X connect 7 0 8 0;
#X connect 7 1 6 0;
#X connect 8 0 6 0;
#X connect 9 0 10 0;
#X connect 9 1 18 0;
#X connect 10 0 5 0;
#X connect 11 0 6 0;
#X connect 13 0 14 0;
#X connect 14 0 16 0;
#X connect 14 1 11 0;
#X connect 16 0 15 0;
#X connect 17 0 7 0;
#X connect 18 0 5 0;
#X connect 19 0 17 0;
#X connect 20 0 9 0;
#X connect 21 0 1 0;
