#N canvas 703 139 1042 797 12;
#X msg 20 37 listen 3000 127.0.0.1;
#X obj 20 65 netreceive -u -b;
#X obj 20 99 oscparse;
#X obj 20 123 route list;
#X obj 20 217 else/format next %s %f %f, f 31;
#X obj 20 166 route path;
#X obj 127 166 route vel;
#X obj 20 8 loadbang;
#X obj 86 11 bng 15 250 50 0 empty empty empty 17 7 0 10 -262144 -1
-1;
#X obj 234 165 route nota;
#X obj 21 311 dac~;
#X obj 20 257 clone Children_SOL-player 64;
#X connect 0 0 1 0;
#X connect 1 0 2 0;
#X connect 2 0 3 0;
#X connect 3 0 5 0;
#X connect 3 0 6 0;
#X connect 3 0 9 0;
#X connect 4 0 11 0;
#X connect 5 0 4 0;
#X connect 6 0 4 1;
#X connect 7 0 0 0;
#X connect 8 0 0 0;
#X connect 9 0 4 2;
#X connect 11 0 10 0;
#X connect 11 0 10 1;
