#N canvas 561 97 1026 721 16;
#X msg 20 85 listen 3000 127.0.0.1;
#X obj 20 128 netreceive -u -b;
#X obj 20 170 oscparse;
#X obj 20 232 route list;
#X obj 20 361 route path;
#X obj 173 363 route vel;
#X obj 20 8 loadbang;
#X obj 127 11 bng 15 250 50 0 empty empty empty 17 7 0 10 -262144 -1
-1;
#X obj 327 363 route nota;
#X obj 20 667 dac~, f 28;
#X obj 20 270 t a b;
#X obj 20 419 else/format next %s %f %f, f 31;
#X obj 359 159 soundfiler;
#X floatatom 359 203 7 0 0 0 - - -;
#X obj 359 112 else/format read -resize %s ir1;
#N canvas 0 23 497 404 table 0;
#N canvas 0 23 450 278 (subpatch) 0;
#X array ir1 215976 float 2;
#X coords 0 1 215976 -1 200 140 1 0 0;
#X restore 25 42 graph;
#X restore 436 201 pd table;
#N canvas 329 161 625 417 vu 0;
#X obj 161 111 abs~;
#X obj 161 213 snapshot~;
#X obj 161 256 rmstodb;
#X obj 161 21 inlet~;
#X obj 161 288 - 100;
#X obj 59 287 - 100;
#X obj 59 361 outlet;
#X obj 161 361 outlet;
#X obj 239 89 expr 1000 / $f1;
#X floatatom 239 117 5 0 0 0 - - -;
#X obj 161 146 slop~ 0 0 0 0 1e+009;
#X obj 239 18 inlet;
#X floatatom 239 57 5 0 0 0 - - -;
#X text 282 118 hz;
#X obj 59 171 t f b;
#X obj 59 129 env~ 1024;
#X connect 0 0 10 0;
#X connect 1 0 2 0;
#X connect 2 0 4 0;
#X connect 3 0 0 0;
#X connect 3 0 15 0;
#X connect 4 0 7 0;
#X connect 5 0 6 0;
#X connect 8 0 9 0;
#X connect 9 0 10 3;
#X connect 10 0 1 0;
#X connect 11 0 12 0;
#X connect 12 0 8 0;
#X connect 14 0 5 0;
#X connect 14 1 1 0;
#X connect 15 0 14 0;
#X restore 627 554 pd vu;
#X obj 20 475 clone Children_SOL-player 32;
#X msg 359 56 C:/Users/Neimog/OneDrive_usp.br/Documents/Music_Files/Convolution-Reverb/02_Ambience_and_Small_Rooms/BM7_Studio_A.aif
;
#X connect 0 0 1 0;
#X connect 1 0 2 0;
#X connect 2 0 3 0;
#X connect 3 0 10 0;
#X connect 4 0 11 0;
#X connect 5 0 11 1;
#X connect 6 0 0 0;
#X connect 6 0 18 0;
#X connect 7 0 0 0;
#X connect 8 0 11 2;
#X connect 10 0 4 0;
#X connect 10 0 5 0;
#X connect 10 0 8 0;
#X connect 11 0 17 0;
#X connect 12 0 13 0;
#X connect 14 0 12 0;
#X connect 17 0 9 0;
#X connect 17 0 9 1;
#X connect 18 0 14 0;
