#N canvas -9 -9 1920 1026 12;
#X msg 98 86 1;
#X obj 200 168 readsf~ 1, f 15;
#X obj 200 500 vstplugin/vstplugin~ 16 2;
#X f 30;
#X obj 200 43 r infile;
#X obj 34 603 loadbang;
#X obj 57 784 s decode-vst;
#X msg 57 721 open -e C:/Users/Neimog/OneDrive_usp.br/Documents/Music_Files/VST2-3/IEM/BinauralDecoder.vst3
1;
#X obj 104 457 r decode-vst;
#X msg 80 666 \; pd dsp 1;
#N canvas 837 581 901 414 loaded 0;
#X obj 26 7 inlet;
#X obj 26 40 route latency, f 53;
#X obj 26 81 s 1_loaded;
#X connect 0 0 1 0;
#X connect 1 0 2 0;
#X restore 420 501 pd loaded;
#X obj 98 7 r 1_loaded;
#X obj 98 40 bng 15 250 50 0 empty empty empty 17 7 0 10 -262144 -1
-1;
#X obj 200 79 else/format set open %s;
#X obj 34 629 t b b b;
#X obj 98 59 t b b;
#X obj 199 577 dac~, f 15;
#X obj 603 438 r gain;
#X obj 658 437 r outfile;
#X obj 302 221 spigot;
#X obj 302 270 s 1_loaded;
#X obj 341 168 r loop;
#X obj 341 191 tgl 25 0 empty empty empty 17 7 0 25 -262144 -1 -1 1
1;
#N canvas 0 50 1253 593 OSC 0;
#X obj 15 53 oscparse;
#X obj 15 19 netreceive -u -b 3000;
#X obj 15 92 route list;
#X obj 15 145 route encoder;
#X obj 15 180 unpack f f f;
#X text 309 309 set parameter;
#X msg 198 310 param_set 8 \$1;
#X obj 201 253 hsl 128 15 -5 5 0 0 empty empty empty -2 -8 0 10 -262144
-1 -1 6474 1;
#X text 523 307 set parameter;
#X obj 415 251 hsl 128 15 -5 5 0 0 empty empty empty -2 -8 0 10 -262144
-1 -1 7409 1;
#X msg 412 308 param_set 9 \$1;
#X obj 198 339 s room-encoder;
#X obj 412 338 s room-encoder;
#X obj 412 275 else/rescale -10 10 0 1;
#X obj 15 277 else/rescale -15 15 0 1;
#X obj 18 253 hsl 128 15 -5 5 0 0 empty empty empty -2 -8 0 10 -262144
-1 -1 5977 1;
#X obj 15 339 s room-encoder;
#X msg 15 310 param_set 7 \$1;
#X msg 412 171 0;
#X obj 412 146 r om-loadbang;
#X obj 198 277 else/rescale 15 -15 0 1;
#X connect 0 0 2 0;
#X connect 1 0 0 0;
#X connect 2 0 3 0;
#X connect 3 0 4 0;
#X connect 4 0 15 0;
#X connect 4 1 7 0;
#X connect 4 2 9 0;
#X connect 6 0 11 0;
#X connect 7 0 20 0;
#X connect 9 0 13 0;
#X connect 10 0 12 0;
#X connect 13 0 10 0;
#X connect 14 0 17 0;
#X connect 15 0 14 0;
#X connect 17 0 16 0;
#X connect 18 0 9 0;
#X connect 18 0 7 0;
#X connect 18 0 15 0;
#X connect 19 0 18 0;
#X connect 20 0 6 0;
#X restore 16 7 pd OSC;
#X obj 499 784 s room-encoder;
#X obj 215 390 r room-encoder;
#X msg 499 721 open -e C:/Users/Neimog/OneDrive_usp.br/Documents/Music_Files/VST2-3/IEM/RoomEncoder.vst3
1;
#X msg 505 680 vis \$1;
#X obj 505 640 tgl 25 0 empty empty empty 17 7 0 10 -262144 -1 -1 1
1;
#X msg 200 110 open C:/Users/Neimog/Documents/OM#/temp-files/19311.aif
, f 117;
#X msg 46 458 vis \$1;
#X obj 46 418 tgl 25 0 empty empty empty 17 7 0 10 -262144 -1 -1 0
1;
#X obj 199 437 vstplugin/vstplugin~ 1 16;
#X f 32;
#X msg 418 194 param_set 4 0.310345;
#X obj 418 226 s room-encoder;
#X obj 571 226 s room-encoder;
#X msg 571 194 param_set 5 0.310345;
#X obj 723 226 s room-encoder;
#X msg 723 194 param_set 6 0.473684;
#X obj 418 166 r om-loadbang;
#X obj 571 166 r om-loadbang;
#X obj 723 166 r om-loadbang;
#X obj 874 225 s room-encoder;
#X obj 874 165 r om-loadbang;
#X msg 874 193 param_set 10 0.5;
#X obj 1003 224 s room-encoder;
#X obj 1003 164 r om-loadbang;
#X msg 1003 192 param_set 11 0.5;
#X obj 1130 222 s room-encoder;
#X obj 1130 162 r om-loadbang;
#X msg 1130 190 param_set 25 1;
#X obj 1249 222 s room-encoder;
#X obj 1249 162 r om-loadbang;
#X msg 1249 190 param_set 23 1;
#X obj 495 501 print;
#X connect 0 0 1 0;
#X connect 1 0 31 0;
#X connect 1 1 18 0;
#X connect 2 0 15 0;
#X connect 2 1 15 1;
#X connect 3 0 12 0;
#X connect 4 0 13 0;
#X connect 6 0 5 0;
#X connect 7 0 2 0;
#X connect 10 0 11 0;
#X connect 11 0 14 0;
#X connect 12 0 28 0;
#X connect 13 1 6 0;
#X connect 13 2 8 0;
#X connect 13 2 25 0;
#X connect 14 0 0 0;
#X connect 14 1 28 0;
#X connect 18 0 19 0;
#X connect 20 0 21 0;
#X connect 21 0 18 1;
#X connect 24 0 31 0;
#X connect 25 0 23 0;
#X connect 26 0 23 0;
#X connect 27 0 26 0;
#X connect 28 0 1 0;
#X connect 29 0 2 0;
#X connect 30 0 29 0;
#X connect 31 0 2 0;
#X connect 31 1 2 1;
#X connect 31 2 2 2;
#X connect 31 3 2 3;
#X connect 31 4 2 4;
#X connect 31 5 2 5;
#X connect 31 6 2 6;
#X connect 31 7 2 7;
#X connect 31 8 2 8;
#X connect 31 9 2 9;
#X connect 31 10 2 10;
#X connect 31 11 2 11;
#X connect 31 12 2 12;
#X connect 31 13 2 13;
#X connect 31 14 2 14;
#X connect 31 15 2 15;
#X connect 31 16 9 0;
#X connect 31 16 53 0;
#X connect 32 0 33 0;
#X connect 35 0 34 0;
#X connect 37 0 36 0;
#X connect 38 0 32 0;
#X connect 39 0 35 0;
#X connect 40 0 37 0;
#X connect 42 0 43 0;
#X connect 43 0 41 0;
#X connect 45 0 46 0;
#X connect 46 0 44 0;
#X connect 48 0 49 0;
#X connect 49 0 47 0;
#X connect 51 0 52 0;
#X connect 52 0 50 0;
