#N canvas 288 102 1476 852 12;
#X msg 385 111 open -e C:/Users/Neimog/OneDrive_usp.br/Documents/Music_Files/VST2-3/IEM/StereoEncoder.vst3
1;
#X msg 53 257 1;
#X obj 133 286 readsf~ 1, f 12;
#X obj 132 388 vstplugin/vstplugin~ 2 16;
#X f 32;
#X obj 133 538 vstplugin/vstplugin~ 16 2;
#X f 30;
#N canvas 753 189 1070 731 parameter 0;
#X obj 100 76 nbx 5 14 -1e+037 1e+037 0 0 empty empty empty 0 -8 0
10 -262144 -1 -1 0 256;
#X obj 19 18 nbx 5 14 -1e+037 1e+037 0 0 empty empty empty 0 -8 0 10
-262144 -1 -1 0 256;
#X msg 19 124 param_set \$1 \$2;
#X obj 39 249 nbx 5 14 -1e+037 1e+037 0 0 empty empty empty 0 -8 0
10 -262144 -1 -1 0 256;
#X msg 50 357 param_count;
#X msg 54 412 param_list;
#X msg 30 190 param_get \$1;
#X obj 30 166 nbx 5 14 -1e+037 1e+037 0 0 empty empty empty 0 -8 0
10 -262144 -1 -1 0 256;
#X msg 56 464 param_dump;
#X text 158 75 index;
#X text 124 123 set parameter;
#X text 96 249 index;
#X text 131 357 get number of parameters;
#X symbolatom 27 40 10 0 0 0 - - -;
#X text 82 16 float value (0.0 - 1.0);
#X text 268 17 a VST parameter can take two forms:;
#X text 95 37 string value (not supported by all plugins), f 26;
#X text 269 79 2) a string representation which is mainly used for
display \, but many plugins also allow you to set the parameter in
this way. it corresponds to the symbol box in the generic editor.,
f 47;
#X text 268 37 1) a 'normalized' float value which is always in the
range 0 to 1 and corresponds to the slider position in the generic
editor., f 47;
#X obj 19 98 list prepend 0;
#X msg 39 269 param_info \$1;
#X text 149 269 get parameter info;
#X text 44 315 the label is the unit of measurement \, e.g. dB \, ms
, f 50;
#X text 44 332 in the future \, more info might be added;
#X text 127 412 get all parameter info;
#X text 131 464 get all parameter state;
#X symbolatom 115 98 10 0 0 0 - - -;
#X symbolatom 92 166 10 0 0 0 - - -;
#X text 28 149 index;
#X text 91 147 name;
#X text 114 189 get parameter;
#X text 183 97 name;
#X text 271 132 Each parameter can be accessed by either its index
or name (with whitespace replaced with underscores), f 46;
#X obj 270 176 cnv 20 285 65 empty empty empty 20 12 0 14 -257985 -66577
0;
#X text 278 184 NOTE: The [param_set( message is scheduled at the current
logical time. This allows for *sample accurate* automation of VST3
plugins - but the plugin has to actually support it!, f 44;
#X text 33 209 responds with;
#X text 45 292 responds with;
#X text 53 364 responds with;
#X text 59 433 responds with a series of;
#X msg 219 432 param_info;
#X text 292 433 messages;
#X text 61 486 responds with a series of;
#X text 295 485 messages;
#X msg 221 485 param_state;
#X text 333 400 is sent through the rightmost outlet.;
#X msg 121 212 param_state <index> <value> >display>, f 20;
#X msg 131 293 param_info <index> <name> <label> ...;
#X msg 140 380 param_count <count>;
#X text 333 348 When you edit parameters in the GUI or automate linked
parameters \,, f 34;
#X msg 336 379 param_automated <index> <value>;
#X obj 19 518 s msg;
#X connect 0 0 19 1;
#X connect 1 0 19 0;
#X connect 2 0 50 0;
#X connect 3 0 20 0;
#X connect 4 0 50 0;
#X connect 5 0 50 0;
#X connect 6 0 50 0;
#X connect 7 0 6 0;
#X connect 8 0 50 0;
#X connect 13 0 19 0;
#X connect 19 0 2 0;
#X connect 20 0 50 0;
#X connect 26 0 19 1;
#X connect 27 0 6 0;
#X restore 1322 55 pd parameter;
#X obj 152 337 r msg;
#X obj 132 24 r infile;
#X obj 304 167 s msg;
#X obj 132 753 writesf~ 2, f 15;
#X obj 22 541 r outfile;
#X obj 22 574 t b a;
#X msg 18 718 start;
#X obj 368 3 loadbang;
#X obj 849 158 s decode-vst;
#X msg 923 89 open -e C:/Users/Neimog/OneDrive_usp.br/Documents/Music_Files/VST2-3/IEM/BinauralDecoder.vst3
1;
#X obj 11 486 r decode-vst;
#X obj 214 318 s finish-process;
#X obj 423 504 r finish-process;
#X msg 455 608 stop;
#X obj 423 551 del 2000;
#X obj 423 582 t b b;
#X msg 414 66 \; pd dsp 1;
#X msg 423 714 \; pd quit;
#X obj 73 607 else/format open -wave %s;
#X obj 423 529 bng 15 250 50 0 empty empty empty 17 7 0 10 -262144
-1 -1;
#N canvas 837 581 901 414 loaded 0;
#X obj 26 7 inlet;
#X obj 26 40 route latency, f 53;
#X obj 26 81 s 1_loaded;
#X connect 0 0 1 0;
#X connect 1 0 2 0;
#X restore 353 440 pd loaded;
#X obj 53 51 r 1_loaded;
#X obj 53 84 bng 15 250 50 0 empty empty empty 17 7 0 10 -262144 -1
-1;
#X obj 133 53 else/format set open %s;
#X msg 133 217 open C:/Users/Neimog/Documents/OM#/temp-files/95027.wav
;
#X obj 368 29 t b b b;
#X obj 19 662 r 1_loaded;
#X obj 19 695 bng 15 250 50 0 empty empty empty 17 7 0 10 -262144 -1
-1;
#X msg 839 90 offline 1;
#X obj 53 108 t b b;
#X msg 305 111 offline 1;
#X msg 40 346 param_list;
#X text 798 508 y;
#X obj 601 405 cyclone/coll;
#C restore;
#X obj 601 288 else/format read %s;
#X obj 520 370 else/count;
#X obj 520 339 metro 1;
#X obj 601 437 unpack f f f;
#X obj 602 543 s msg;
#X obj 816 542 s msg;
#X obj 1027 541 s msg;
#X obj 520 289 r 1_loaded;
#X msg 520 314 1;
#X text 1009 508 z;
#X obj 679 362 print;
#X obj 601 238 r coll_file;
#X msg 792 323 reset;
#X obj 602 508 else/format param_set 6 %f;
#X obj 816 508 else/format param_set 7 %f;
#X obj 1027 507 else/format param_set 8 %f;
#X obj 309 73 del 1000;
#X obj 629 617 r om-loadbang;
#X obj 423 689 spigot 1;
#X msg 629 641 1;
#X obj 539 619 loadbang;
#X msg 539 645 0;
#X connect 0 0 8 0;
#X connect 1 0 2 0;
#X connect 2 0 3 0;
#X connect 2 0 3 1;
#X connect 2 1 17 0;
#X connect 3 0 4 0;
#X connect 3 1 4 1;
#X connect 3 2 4 2;
#X connect 3 3 4 3;
#X connect 3 4 4 4;
#X connect 3 5 4 5;
#X connect 3 6 4 6;
#X connect 3 7 4 7;
#X connect 3 8 4 8;
#X connect 3 9 4 9;
#X connect 3 10 4 10;
#X connect 3 11 4 11;
#X connect 3 12 4 12;
#X connect 3 13 4 13;
#X connect 3 14 4 14;
#X connect 3 15 4 15;
#X connect 3 16 26 0;
#X connect 4 0 9 0;
#X connect 4 1 9 1;
#X connect 6 0 3 0;
#X connect 7 0 29 0;
#X connect 10 0 11 0;
#X connect 11 1 24 0;
#X connect 12 0 9 0;
#X connect 13 0 31 0;
#X connect 15 0 14 0;
#X connect 16 0 4 0;
#X connect 18 0 25 0;
#X connect 19 0 9 0;
#X connect 20 0 21 0;
#X connect 21 0 58 0;
#X connect 21 1 19 0;
#X connect 24 0 9 0;
#X connect 25 0 20 0;
#X connect 27 0 28 0;
#X connect 28 0 35 0;
#X connect 29 0 30 0;
#X connect 30 0 2 0;
#X connect 31 0 56 0;
#X connect 31 1 15 0;
#X connect 31 1 34 0;
#X connect 31 2 22 0;
#X connect 32 0 33 0;
#X connect 33 0 12 0;
#X connect 34 0 14 0;
#X connect 35 0 1 0;
#X connect 35 1 30 0;
#X connect 36 0 8 0;
#X connect 37 0 3 0;
#X connect 39 0 43 0;
#X connect 40 0 39 0;
#X connect 40 0 50 0;
#X connect 41 0 39 0;
#X connect 42 0 41 0;
#X connect 43 0 53 0;
#X connect 43 1 54 0;
#X connect 43 2 55 0;
#X connect 47 0 48 0;
#X connect 48 0 42 0;
#X connect 51 0 40 0;
#X connect 52 0 41 0;
#X connect 53 0 44 0;
#X connect 54 0 45 0;
#X connect 55 0 46 0;
#X connect 56 0 36 0;
#X connect 56 0 0 0;
#X connect 57 0 59 0;
#X connect 58 0 23 0;
#X connect 59 0 58 1;
#X connect 60 0 61 0;
#X connect 61 0 58 1;
